<svg width="275" height="54" xmlns="http://www.w3.org/2000/svg" xmlns:xlink="http://www.w3.org/1999/xlink" xml:space="preserve" overflow="hidden"><defs><clipPath id="clip0"><rect x="104" y="259" width="275" height="54"/></clipPath><linearGradient x1="14.3387" y1="-2.38979" x2="71.0196" y2="52.5447" gradientUnits="userSpaceOnUse" spreadMethod="pad" id="fill1"><stop offset="0" stop-color="#FB851E"/><stop offset="0.17" stop-color="#FB851E"/><stop offset="1" stop-color="#FB371E"/></linearGradient></defs><g clip-path="url(#clip0)" transform="translate(-104 -259)"><path d="M70.2077 0 70.2077 24.9243 60.9855 24.9243 60.9855 0 70.2077 0ZM26.1498 28.3557 26.1498 53.28 16.9277 53.28 16.9277 28.3557 26.1498 28.3557Z" fill="#FB851E" fill-rule="evenodd" transform="matrix(1.00135 0 0 1 104.837 259)"/><path d="M33.12 0 16.9277 0 16.9277 15.886 70.2077 53.28 33.12 0Z" fill="url(#fill1)" transform="matrix(1.00135 0 0 1 104.837 259)"/><path d="M9.22213 0 0 0 0 53.28 9.22213 53.28 9.22213 0ZM242.502 47.474 221.193 15.6562 221.193 53.2647 212.048 53.2647 212.048 0 221.591 0 242.625 34.4834 263.489 0 272.941 0 272.941 53.2647 263.719 53.2647 263.719 15.6562 242.487 47.474ZM137.367 0 146.589 0 146.589 53.28 137.367 53.28 137.367 0ZM179.678 54C193.037 54 203.699 46.9226 203.699 33.0128L203.699 0 194.477 0 194.477 33.4111C194.477 42.0051 188.426 46.2179 179.694 46.2179 170.962 46.2179 164.819 42.0051 164.819 33.4111L164.819 0 155.597 0 155.597 32.9974C155.597 46.9226 166.335 53.9847 179.694 53.9847L179.694 53.9847ZM78.8323 0 102.531 0C120.899 0 130.044 8.82383 130.044 26.64 130.044 44.4562 120.899 53.28 102.531 53.28L78.8323 53.28 78.8323 0ZM88.0545 45.8043 102.684 45.8043C114.618 45.8043 120.5 39.3702 120.5 26.64 120.5 13.9098 114.618 7.47575 102.684 7.47575L88.0545 7.47575 88.0545 45.8043Z" fill="#161616" fill-rule="evenodd" transform="matrix(1.00135 0 0 1 104.837 259)"/></g></svg>